HIERARCHY
ROOT Hips
{
	OFFSET 0.000000 87.230942 0.000000
	CHANNELS 6 Xposition Yposition Zposition Xrotation Yrotation Zrotation
	JOINT Pelvis
	{
		OFFSET 0.000000 0.000000 0.000000
		CHANNELS 3 Xrotation Yrotation Zrotation
		JOINT LeftUpLeg
		{
			OFFSET 12.017000 -9.376404 -2.439400
			CHANNELS 3 Xrotation Yrotation Zrotation
			JOINT LeftLeg
			{
				OFFSET -0.007312 -32.846973 2.110600
				CHANNELS 3 Xrotation Yrotation Zrotation
				JOINT LeftFoot
				{
					OFFSET 0.007312 -32.065170 -0.570400
					CHANNELS 3 Xrotation Yrotation Zrotation
					JOINT LeftToeBase
					{
						OFFSET 0.728300 -11.045900 13.180700
						CHANNELS 3 Xrotation Yrotation Zrotation
						End Site
						{
							OFFSET 0.000000 17.212589 0.000000
						}
					}
				}
				JOINT LeftPantLeg
				{
					OFFSET 0.002788 -16.709013 -3.143600
					CHANNELS 3 Xrotation Yrotation Zrotation
					End Site
					{
						OFFSET -0.605125 24.528742 0.000000
					}
				}
			}
			JOINT Left_Butt
			{
				OFFSET -6.630234 1.326584 -3.183700
				CHANNELS 3 Xrotation Yrotation Zrotation
				End Site
				{
					OFFSET -0.498041 20.188049 0.000000
				}
			}
		}
		JOINT RightUpLeg
		{
			OFFSET -11.717000 -9.376404 -2.439400
			CHANNELS 3 Xrotation Yrotation Zrotation
			JOINT RightLeg
			{
				OFFSET -0.003241 -32.846912 2.110600
				CHANNELS 3 Xrotation Yrotation Zrotation
				JOINT RightFoot
				{
					OFFSET 0.003241 -32.065136 -0.570500
					CHANNELS 3 Xrotation Yrotation Zrotation
					JOINT RightToeBase
					{
						OFFSET -0.728300 -11.045901 13.180700
						CHANNELS 3 Xrotation Yrotation Zrotation
						End Site
						{
							OFFSET 0.000000 17.212593 0.000000
						}
					}
				}
				JOINT RightPantLeg
				{
					OFFSET 0.008142 -16.708982 -3.143700
					CHANNELS 3 Xrotation Yrotation Zrotation
					End Site
					{
						OFFSET 0.605088 24.528715 0.000000
					}
				}
			}
			JOINT Right_Butt
			{
				OFFSET 6.630732 1.326584 -3.183700
				CHANNELS 3 Xrotation Yrotation Zrotation
				End Site
				{
					OFFSET 0.498015 20.188240 0.000000
				}
			}
		}
	}
	JOINT Spine
	{
		OFFSET -0.062400 7.848404 3.918300
		CHANNELS 3 Xrotation Yrotation Zrotation
		JOINT Spine1
		{
			OFFSET -0.072800 11.422302 0.713400
			CHANNELS 3 Xrotation Yrotation Zrotation
			JOINT Spine2
			{
				OFFSET -0.083200 13.054001 -1.931600
				CHANNELS 3 Xrotation Yrotation Zrotation
				JOINT Neck
				{
					OFFSET -0.092200 14.121796 -5.138800
					CHANNELS 3 Xrotation Yrotation Zrotation
					JOINT Head
					{
						OFFSET 0.000200 10.447403 -0.842000
						CHANNELS 3 Xrotation Yrotation Zrotation
						JOINT Visor
						{
							OFFSET 0.457100 25.671204 16.550400
							CHANNELS 3 Xrotation Yrotation Zrotation
							End Site
							{
								OFFSET 0.000000 26.061493 0.000000
							}
						}
						JOINT HairMidA
						{
							OFFSET 0.459400 31.585403 8.437400
							CHANNELS 3 Xrotation Yrotation Zrotation
							End Site
							{
								OFFSET 0.000000 26.061493 0.000000
							}
						}
						JOINT HairMidB
						{
							OFFSET 0.464000 33.309204 -8.389700
							CHANNELS 3 Xrotation Yrotation Zrotation
							End Site
							{
								OFFSET 0.000000 26.061493 0.000000
							}
						}
						JOINT HairMidC
						{
							OFFSET 0.466600 27.991196 -17.375099
							CHANNELS 3 Xrotation Yrotation Zrotation
							End Site
							{
								OFFSET 0.000000 26.061493 0.000000
							}
						}
						JOINT HairMidD
						{
							OFFSET 0.467700 17.888092 -21.169500
							CHANNELS 3 Xrotation Yrotation Zrotation
							End Site
							{
								OFFSET 0.000000 26.061493 0.000000
							}
						}
						JOINT HairMidE
						{
							OFFSET 5.325700 3.514603 -14.369699
							CHANNELS 3 Xrotation Yrotation Zrotation
							End Site
							{
								OFFSET 0.000000 26.061493 0.000000
							}
						}
						JOINT HairMidF
						{
							OFFSET -4.394100 3.514603 -14.372400
							CHANNELS 3 Xrotation Yrotation Zrotation
							End Site
							{
								OFFSET 0.000000 26.061493 0.000000
							}
						}
						JOINT HairLeftA
						{
							OFFSET 15.319900 25.746506 2.623300
							CHANNELS 3 Xrotation Yrotation Zrotation
							End Site
							{
								OFFSET 0.000000 26.061493 0.000000
							}
						}
						JOINT HairLeftB
						{
							OFFSET 12.619500 29.289398 -8.731499
							CHANNELS 3 Xrotation Yrotation Zrotation
							End Site
							{
								OFFSET 0.000000 26.061493 0.000000
							}
						}
						JOINT HairLeftC
						{
							OFFSET 15.714800 15.959900 2.909800
							CHANNELS 3 Xrotation Yrotation Zrotation
							End Site
							{
								OFFSET 0.000000 26.061493 0.000000
							}
						}
						JOINT HairLeftD
						{
							OFFSET 16.101700 18.437408 -7.553200
							CHANNELS 3 Xrotation Yrotation Zrotation
							End Site
							{
								OFFSET 0.000000 26.061493 0.000000
							}
						}
						JOINT HairLeftE
						{
							OFFSET 9.731900 17.915009 -18.316799
							CHANNELS 3 Xrotation Yrotation Zrotation
							End Site
							{
								OFFSET 0.000000 26.061493 0.000000
							}
						}
						JOINT HairLeftF
						{
							OFFSET 11.204300 4.953598 -9.668100
							CHANNELS 3 Xrotation Yrotation Zrotation
							End Site
							{
								OFFSET 0.000000 26.061493 0.000000
							}
						}
						JOINT HairRightA
						{
							OFFSET -14.397900 25.746307 2.615100
							CHANNELS 3 Xrotation Yrotation Zrotation
							End Site
							{
								OFFSET 0.000000 26.061493 0.000000
							}
						}
						JOINT HairRightB
						{
							OFFSET -11.691200 29.289200 -8.738199
							CHANNELS 3 Xrotation Yrotation Zrotation
							End Site
							{
								OFFSET 0.000000 26.061493 0.000000
							}
						}
						JOINT HairRightC
						{
							OFFSET -14.792900 15.959702 2.901400
							CHANNELS 3 Xrotation Yrotation Zrotation
							End Site
							{
								OFFSET 0.000000 26.061493 0.000000
							}
						}
						JOINT HairRightD
						{
							OFFSET -15.174000 18.437195 -7.561900
							CHANNELS 3 Xrotation Yrotation Zrotation
							End Site
							{
								OFFSET 0.000000 26.061493 0.000000
							}
						}
						JOINT HairRightE
						{
							OFFSET -8.798200 17.914902 -18.322001
							CHANNELS 3 Xrotation Yrotation Zrotation
							End Site
							{
								OFFSET 0.000000 26.061493 0.000000
							}
						}
						JOINT HairRightF
						{
							OFFSET -10.275200 4.953506 -9.674099
							CHANNELS 3 Xrotation Yrotation Zrotation
							End Site
							{
								OFFSET 0.000000 26.061493 0.000000
							}
						}
					}
				}
				JOINT LeftShoulder
				{
					OFFSET 5.133500 7.341202 -1.867600
					CHANNELS 3 Xrotation Yrotation Zrotation
					JOINT LeftArm
					{
						OFFSET 8.072663 0.936867 -2.176600
						CHANNELS 3 Xrotation Yrotation Zrotation
						JOINT LeftForeArm
						{
							OFFSET 31.271999 0.000000 0.000000
							CHANNELS 3 Xrotation Yrotation Zrotation
							JOINT LeftHand
							{
								OFFSET 31.771030 0.000000 0.000000
								CHANNELS 3 Xrotation Yrotation Zrotation
								JOINT LeftHandThumb1
								{
									OFFSET 2.886520 -2.557846 4.416640
									CHANNELS 3 Xrotation Yrotation Zrotation
									JOINT LeftHandThumb2
									{
										OFFSET 2.371025 -1.368912 1.368911
										CHANNELS 3 Xrotation Yrotation Zrotation
										JOINT LeftHandThumb3
										{
											OFFSET 2.243378 -1.295212 1.295213
											CHANNELS 3 Xrotation Yrotation Zrotation
											End Site
											{
												OFFSET -0.332611 2.876945 0.020015
											}
										}
									}
								}
								JOINT LeftHandIndex1
								{
									OFFSET 8.568985 -0.641945 3.119977
									CHANNELS 3 Xrotation Yrotation Zrotation
									JOINT LeftHandIndex2
									{
										OFFSET 3.348503 0.000000 0.000000
										CHANNELS 3 Xrotation Yrotation Zrotation
										JOINT LeftHandIndex3
										{
											OFFSET 3.314552 0.000000 0.000000
											CHANNELS 3 Xrotation Yrotation Zrotation
											End Site
											{
												OFFSET -1.032898 3.075485 0.678796
											}
										}
									}
								}
								JOINT LeftHandMiddle1
								{
									OFFSET 8.124603 0.000000 0.000000
									CHANNELS 3 Xrotation Yrotation Zrotation
									JOINT LeftHandMiddle2
									{
										OFFSET 4.166275 0.000000 0.000000
										CHANNELS 3 Xrotation Yrotation Zrotation
										JOINT LeftHandMiddle3
										{
											OFFSET 3.018135 0.000000 0.000000
											CHANNELS 3 Xrotation Yrotation Zrotation
											End Site
											{
												OFFSET -1.032700 2.767982 0.617226
											}
										}
									}
								}
								JOINT LeftHandRing1
								{
									OFFSET 8.571686 -0.031357 -2.884048
									CHANNELS 3 Xrotation Yrotation Zrotation
									JOINT LeftHandRing2
									{
										OFFSET 3.671181 0.000000 0.000000
										CHANNELS 3 Xrotation Yrotation Zrotation
										JOINT LeftHandRing3
										{
											OFFSET 2.728851 0.000000 0.000000
											CHANNELS 3 Xrotation Yrotation Zrotation
											End Site
											{
												OFFSET -0.815796 2.539223 0.577389
											}
										}
									}
								}
								JOINT LeftHandPinky1
								{
									OFFSET 7.854515 -0.675232 -5.213020
									CHANNELS 3 Xrotation Yrotation Zrotation
									JOINT LeftHandPinky2
									{
										OFFSET 3.068596 0.000000 0.000000
										CHANNELS 3 Xrotation Yrotation Zrotation
										JOINT LeftHandPinky3
										{
											OFFSET 2.396042 0.000000 0.000000
											CHANNELS 3 Xrotation Yrotation Zrotation
											End Site
											{
												OFFSET -0.524597 2.267998 0.567429
											}
										}
									}
								}
							}
							JOINT LeftSleeve
							{
								OFFSET 19.684509 -0.200119 0.476146
								CHANNELS 3 Xrotation Yrotation Zrotation
								End Site
								{
									OFFSET -0.031017 25.731133 -0.002868
								}
							}
						}
					}
				}
				JOINT RightShoulder
				{
					OFFSET -4.395900 7.341202 -1.870200
					CHANNELS 3 Xrotation Yrotation Zrotation
					JOINT RightArm
					{
						OFFSET -8.071453 0.936867 -2.181100
						CHANNELS 3 Xrotation Yrotation Zrotation
						JOINT RightForeArm
						{
							OFFSET -31.272011 0.000000 0.000000
							CHANNELS 3 Xrotation Yrotation Zrotation
							JOINT RightHand
							{
								OFFSET -31.771019 0.000000 0.000000
								CHANNELS 3 Xrotation Yrotation Zrotation
								JOINT RightHandThumb1
								{
									OFFSET -2.886520 -2.557808 4.416626
									CHANNELS 3 Xrotation Yrotation Zrotation
									JOINT RightHandThumb2
									{
										OFFSET -2.371056 -1.368927 1.368928
										CHANNELS 3 Xrotation Yrotation Zrotation
										JOINT RightHandThumb3
										{
											OFFSET -2.243362 -1.295204 1.295206
											CHANNELS 3 Xrotation Yrotation Zrotation
											End Site
											{
												OFFSET 0.332642 2.876938 0.020047
											}
										}
									}
								}
								JOINT RightHandIndex1
								{
									OFFSET -8.568993 -0.641953 3.120017
									CHANNELS 3 Xrotation Yrotation Zrotation
									JOINT RightHandIndex2
									{
										OFFSET -3.348518 0.000000 0.000000
										CHANNELS 3 Xrotation Yrotation Zrotation
										JOINT RightHandIndex3
										{
											OFFSET -3.314552 0.000000 0.000000
											CHANNELS 3 Xrotation Yrotation Zrotation
											End Site
											{
												OFFSET 1.032898 3.075478 0.678804
											}
										}
									}
								}
								JOINT RightHandMiddle1
								{
									OFFSET -8.124588 0.000000 0.000000
									CHANNELS 3 Xrotation Yrotation Zrotation
									JOINT RightHandMiddle2
									{
										OFFSET -4.166275 0.000000 0.000000
										CHANNELS 3 Xrotation Yrotation Zrotation
										JOINT RightHandMiddle3
										{
											OFFSET -3.018097 0.000000 0.000000
											CHANNELS 3 Xrotation Yrotation Zrotation
											End Site
											{
												OFFSET 1.032700 2.767937 0.617197
											}
										}
									}
								}
								JOINT RightHandRing1
								{
									OFFSET -8.571747 -0.031349 -2.884061
									CHANNELS 3 Xrotation Yrotation Zrotation
									JOINT RightHandRing2
									{
										OFFSET -3.671204 0.000000 0.000000
										CHANNELS 3 Xrotation Yrotation Zrotation
										JOINT RightHandRing3
										{
											OFFSET -2.728874 0.000000 0.000000
											CHANNELS 3 Xrotation Yrotation Zrotation
											End Site
											{
												OFFSET 0.815804 2.539261 0.577413
											}
										}
									}
								}
								JOINT RightHandPinky1
								{
									OFFSET -7.854561 -0.675247 -5.212970
									CHANNELS 3 Xrotation Yrotation Zrotation
									JOINT RightHandPinky2
									{
										OFFSET -3.068550 0.000000 0.000000
										CHANNELS 3 Xrotation Yrotation Zrotation
										JOINT RightHandPinky3
										{
											OFFSET -2.395981 0.000000 0.000000
											CHANNELS 3 Xrotation Yrotation Zrotation
											End Site
											{
												OFFSET 0.524605 2.267952 0.567413
											}
										}
									}
								}
							}
							JOINT RightSleeve
							{
								OFFSET -19.684753 -0.200165 0.476065
								CHANNELS 3 Xrotation Yrotation Zrotation
								End Site
								{
									OFFSET 0.031342 25.731255 -0.002917
								}
							}
						}
					}
				}
				JOINT Hood
				{
					OFFSET 0.369700 14.447800 -5.317800
					CHANNELS 3 Xrotation Yrotation Zrotation
					JOINT Hood1
					{
						OFFSET 0.001700 -5.553802 -5.895100
						CHANNELS 3 Xrotation Yrotation Zrotation
						JOINT Hood2
						{
							OFFSET -0.000200 -8.380501 0.763600
							CHANNELS 3 Xrotation Yrotation Zrotation
							End Site
							{
								OFFSET 0.000000 8.415215 0.000000
							}
						}
					}
				}
				JOINT Left_Breast
				{
					OFFSET 5.682500 3.120102 3.188800
					CHANNELS 3 Xrotation Yrotation Zrotation
					End Site
					{
						OFFSET 0.000000 10.528564 0.000000
					}
				}
				JOINT Right_Breast
				{
					OFFSET -4.947600 3.120102 3.185900
					CHANNELS 3 Xrotation Yrotation Zrotation
					End Site
					{
						OFFSET 0.000000 10.528564 0.000000
					}
				}
				JOINT Whistle
				{
					OFFSET 0.368200 11.471298 0.095400
					CHANNELS 3 Xrotation Yrotation Zrotation
					JOINT Whistle1
					{
						OFFSET -0.002000 -6.349899 7.479800
						CHANNELS 3 Xrotation Yrotation Zrotation
						JOINT Whistle2
						{
							OFFSET -0.001300 -8.217598 4.717600
							CHANNELS 3 Xrotation Yrotation Zrotation
							End Site
							{
								OFFSET 0.000000 9.475479 0.000000
							}
						}
					}
				}
			}
		}
		JOINT Belly
		{
			OFFSET 0.212400 1.593002 3.163700
			CHANNELS 3 Xrotation Yrotation Zrotation
			End Site
			{
				OFFSET 0.000000 7.496635 0.000000
			}
		}
	}
	JOINT FitGrandmaFacialAnim_Joint
	{
		OFFSET 1.150000 -86.211197 -1.220100
		CHANNELS 3 Xrotation Yrotation Zrotation
		End Site
		{
			OFFSET 0.000000 31.666618 0.000000
		}
	}
}
MOTION
Frames: 4
Frame Time: 0.016667
-92.378189 73.112015 -3.598404 5.530478 -58.168985 2.838258 -0.000000 -0.000001 0.000000 -41.484991 -22.686569 21.126550 42.291667 -5.093065 -9.370280 -2.410098 0.757151 -19.401552 -0.000000 -0.000001 -0.000000 -0.000000 -0.000003 0.000001 -0.000003 0.000002 0.000003 -46.135401 -0.305734 -14.775168 89.024023 9.075836 -7.076677 -25.678834 -5.686044 13.079005 0.000002 0.000000 0.000000 0.000003 0.000002 -0.000000 0.000003 -0.000001 0.000000 15.968159 1.311681 -4.364586 15.662360 2.194501 -5.768864 15.861041 2.321206 -5.742674 -14.884357 23.425674 6.721286 -15.964690 21.324462 2.083147 0.000003 0.000000 -0.000000 0.000003 0.000000 -0.000000 0.000003 0.000000 -0.000000 0.000003 0.000000 -0.000000 0.000003 0.000000 -0.000000 0.000003 0.000000 -0.000000 0.000003 0.000000 -0.000000 0.000003 0.000000 -0.000000 0.000003 0.000000 -0.000000 0.000003 0.000000 -0.000000 0.000003 0.000000 -0.000000 0.000003 0.000000 -0.000000 0.000003 0.000000 -0.000000 0.000003 0.000000 -0.000000 0.000003 0.000000 -0.000000 0.000003 0.000000 -0.000000 0.000003 0.000000 -0.000000 0.000003 0.000000 -0.000000 0.000003 0.000000 -0.000000 -0.592722 -13.563754 6.823830 -37.598402 23.788804 -23.345663 0.137199 -73.842432 0.102680 21.506997 -12.727078 33.551795 -0.176234 -1.991288 10.659555 -0.979207 11.076290 -5.731063 0.000001 -0.000001 0.000002 13.247442 -0.979844 21.207949 -0.180157 0.297632 -20.577352 0.000001 -0.000002 -0.000002 8.602427 -0.416350 9.612752 0.200401 0.617473 -19.373456 -0.000000 0.000003 -0.000001 6.158749 3.074159 -5.684663 0.025726 0.262737 -19.597358 0.000001 -0.000005 -0.000001 -5.613890 7.660078 -3.352575 0.187018 0.237969 -36.060195 0.000000 0.000002 0.000003 0.000002 -0.000000 -0.000004 -2.118367 13.247535 13.753727 -38.399074 -0.958087 39.774189 151.512529 110.498111 -153.014351 -21.986355 0.700015 -2.641029 1.093343 1.408791 -13.987316 3.986620 -25.048819 0.080534 0.000000 0.000002 0.000000 19.464646 11.168265 -4.447429 -0.110033 -0.329383 26.935980 -0.000001 0.000002 -0.000000 4.244753 2.329700 4.090252 0.378211 -0.490155 35.790649 -0.000001 -0.000000 -0.000000 -7.005490 -10.749416 14.617050 0.115644 -0.151328 35.055997 -0.000001 0.000001 0.000005 -19.412764 -20.240299 14.888252 0.269417 -0.116255 45.744840 -0.000005 -0.000001 -0.000002 0.000000 -0.000001 0.000001 -0.000003 0.000002 -0.000004 -0.000003 0.000002 -0.000004 -0.000003 0.000002 -0.000004 -0.000003 0.000002 -0.000004 -0.000003 0.000002 -0.000004 -0.000004 0.000002 -0.000002 -0.000000 -0.000000 0.000000 -0.000000 -0.000000 0.000000 -0.000000 0.000002 -0.000001 -0.000000 -0.000001 0.000000 
-93.499413 73.116165 -3.565512 4.063225 -58.510720 1.637640 -0.000000 0.000000 0.000000 -40.002277 -22.338187 22.093452 43.343592 -5.957527 -9.683321 -4.164795 1.062516 -19.405247 0.000000 0.000001 -0.000000 -0.000001 0.000001 -0.000001 -0.000002 0.000001 -0.000002 -45.580789 0.013679 -15.311022 85.468964 5.531180 -7.326763 -28.004300 -7.155012 11.709797 -0.000001 0.000002 -0.000002 -0.000003 -0.000001 0.000002 0.000001 -0.000000 0.000002 15.898582 1.143187 -4.391666 15.476321 1.900091 -5.988027 15.663091 2.020916 -5.953949 -15.640631 24.355941 6.043403 -15.299786 22.041528 1.948361 0.000000 -0.000000 -0.000001 0.000000 -0.000000 -0.000001 0.000000 -0.000000 -0.000001 0.000000 -0.000000 -0.000001 0.000000 -0.000000 -0.000001 0.000000 -0.000000 -0.000001 0.000000 -0.000000 -0.000001 0.000000 -0.000000 -0.000001 0.000000 -0.000000 -0.000001 0.000000 -0.000000 -0.000001 0.000000 -0.000000 -0.000001 0.000000 -0.000000 -0.000001 0.000000 -0.000000 -0.000001 0.000000 -0.000000 -0.000001 0.000000 -0.000000 -0.000001 0.000000 -0.000000 -0.000001 0.000000 -0.000000 -0.000001 0.000000 -0.000000 -0.000001 0.000000 -0.000000 -0.000001 -1.370440 -14.343337 3.032925 -38.279597 22.614246 -23.089914 0.142049 -75.187815 0.107933 21.180311 -12.561885 30.726350 -0.172643 -1.962148 10.669716 -0.991722 11.049025 -5.744195 -0.000001 0.000002 0.000001 13.246157 -0.979975 21.241415 -0.180220 0.297656 -20.543879 0.000003 -0.000002 -0.000002 8.603004 -0.416587 9.646212 0.200002 0.617167 -19.339956 0.000000 -0.000002 -0.000000 6.160618 3.072700 -5.651293 0.025777 0.262518 -19.563878 0.000001 -0.000000 0.000000 -5.609827 7.658637 -3.319407 0.186934 0.238041 -36.026697 0.000001 0.000002 -0.000002 -0.000001 0.000002 0.000002 -2.145702 13.116398 13.287855 -38.908504 -2.796941 41.271155 150.551453 108.832665 -151.840843 -18.983474 0.814729 -0.184465 1.100677 1.316002 -14.020261 4.097924 -25.391039 -0.046745 -0.000003 0.000002 -0.000001 19.480333 11.186115 -4.051263 -0.109610 -0.329636 27.333162 -0.000002 -0.000000 -0.000000 4.235012 2.325053 4.487363 0.380044 -0.491316 36.187818 -0.000002 -0.000005 -0.000003 -7.026278 -10.770440 15.013172 0.116081 -0.154263 35.453166 -0.000000 -0.000001 0.000001 -19.446517 -20.272579 15.280807 0.270975 -0.117507 46.141934 0.000000 0.000001 0.000001 -0.000005 0.000000 -0.000000 -0.000001 0.000000 0.000001 -0.000001 0.000000 0.000001 -0.000001 0.000000 0.000001 -0.000001 0.000000 0.000001 -0.000001 0.000000 0.000001 -0.000001 0.000000 -0.000000 0.000001 0.000002 -0.000001 0.000001 0.000002 -0.000001 0.000002 0.000000 -0.000000 -0.000000 0.000000 0.000000 
-94.583107 73.128746 -3.544083 2.640773 -58.749681 0.524568 -0.000000 -0.000003 -0.000000 -38.569853 -21.782091 22.985584 44.078803 -6.888867 -9.946600 -5.688350 1.317908 -19.334090 0.000000 -0.000002 -0.000000 0.000000 -0.000002 0.000001 -0.000000 -0.000001 -0.000000 -44.692127 0.117258 -15.915616 81.125087 2.671773 -7.677213 -28.978737 -8.269068 11.760355 -0.000000 -0.000000 0.000001 -0.000003 -0.000001 0.000002 0.000003 -0.000002 -0.000000 15.823600 0.982989 -4.393917 15.281054 1.631131 -6.174523 15.452415 1.743129 -6.133699 -16.471734 25.128983 5.368877 -14.460293 22.658895 1.648730 0.000001 -0.000000 0.000001 0.000001 -0.000000 0.000001 0.000001 -0.000000 0.000001 0.000001 -0.000000 0.000001 0.000001 -0.000000 0.000001 0.000001 -0.000000 0.000001 0.000001 -0.000000 0.000001 0.000001 -0.000000 0.000001 0.000001 -0.000000 0.000001 0.000001 -0.000000 0.000001 0.000001 -0.000000 0.000001 0.000001 -0.000000 0.000001 0.000001 -0.000000 0.000001 0.000001 -0.000000 0.000001 0.000001 -0.000000 0.000001 0.000001 -0.000000 0.000001 0.000001 -0.000000 0.000001 0.000001 -0.000000 0.000001 0.000001 -0.000000 0.000001 -2.134500 -14.889228 -0.321560 -38.090852 21.313447 -23.421110 0.143804 -75.859674 0.109819 21.642679 -12.430012 28.334584 -0.171282 -1.951946 10.673360 -0.995527 11.040106 -5.747502 0.000000 -0.000000 -0.000002 13.244937 -0.980185 21.252193 -0.180227 0.297731 -20.533246 0.000001 0.000000 -0.000001 8.603637 -0.416706 9.656904 0.199598 0.616966 -19.329309 -0.000004 0.000000 0.000002 6.162573 3.070934 -5.640790 0.025949 0.262530 -19.553187 0.000000 0.000003 -0.000001 -5.608287 7.656854 -3.309139 0.186884 0.238165 -36.015977 -0.000002 0.000000 -0.000001 -0.000004 0.000002 0.000002 -2.213427 12.977061 12.820904 -38.520300 -3.822290 41.682288 149.720315 107.278086 -150.818350 -17.231128 2.319440 1.639084 1.099614 1.332547 -14.014475 4.156974 -25.569867 -0.112257 -0.000005 0.000002 -0.000002 19.490560 11.198346 -3.844282 -0.109435 -0.329765 27.540784 0.000002 0.000000 0.000001 4.228737 2.322544 4.694898 0.381013 -0.491859 36.395387 -0.000001 -0.000000 0.000002 -7.040173 -10.784486 15.220086 0.116270 -0.155908 35.660814 -0.000003 -0.000003 -0.000003 -19.469260 -20.294749 15.485331 0.271726 -0.118133 46.349541 0.000002 0.000001 0.000002 0.000000 0.000001 0.000004 -0.000000 -0.000002 -0.000000 -0.000000 -0.000002 -0.000000 -0.000000 -0.000002 -0.000000 -0.000000 -0.000002 -0.000000 -0.000000 -0.000002 -0.000000 -0.000000 -0.000002 0.000003 0.000001 -0.000000 0.000001 0.000001 -0.000000 0.000001 0.000000 0.000001 -0.000000 -0.000000 -0.000003 -0.000000 
-95.645309 73.035843 -3.549008 1.289262 -58.898579 -0.463607 -0.000000 0.000001 -0.000000 -37.406877 -21.131919 23.817542 44.891487 -8.004460 -10.235815 -7.172539 1.569275 -19.184909 -0.000000 -0.000001 0.000000 -0.000001 0.000002 -0.000000 0.000001 -0.000001 0.000001 -43.364769 -0.001992 -16.738236 75.385426 1.995181 -8.028118 -26.675688 -7.962197 14.097399 0.000000 0.000001 -0.000001 0.000000 0.000001 0.000001 0.000002 0.000003 0.000004 15.743313 0.822376 -4.394242 15.077535 1.383968 -6.329461 15.230629 1.483826 -6.284084 -17.484625 25.776256 4.725523 -13.493814 23.182101 1.276607 0.000002 0.000000 -0.000001 0.000002 0.000000 -0.000001 0.000002 0.000000 -0.000001 0.000002 0.000000 -0.000001 0.000002 0.000000 -0.000001 0.000002 0.000000 -0.000001 0.000002 0.000000 -0.000001 0.000002 0.000000 -0.000001 0.000002 0.000000 -0.000001 0.000002 0.000000 -0.000001 0.000002 0.000000 -0.000001 0.000002 0.000000 -0.000001 0.000002 0.000000 -0.000001 0.000002 0.000000 -0.000001 0.000002 0.000000 -0.000001 0.000002 0.000000 -0.000001 0.000002 0.000000 -0.000001 0.000002 0.000000 -0.000001 0.000002 0.000000 -0.000001 -2.761769 -14.973151 -2.599936 -36.570656 20.101440 -24.497426 0.136191 -75.533587 0.102040 22.628488 -12.613204 26.528077 -0.175612 -1.983296 10.662201 -0.950366 11.151368 -5.698980 -0.000002 0.000002 -0.000001 13.243764 -0.980669 21.119420 -0.180066 0.297930 -20.665907 0.000001 0.000001 -0.000001 8.602294 -0.415790 9.524146 0.199708 0.617395 -19.462038 -0.000001 -0.000001 -0.000004 6.163237 3.070142 -5.773596 0.026169 0.263584 -19.685917 0.000000 0.000001 0.000000 -5.603447 7.655356 -3.442076 0.187309 0.238801 -36.148759 -0.000002 -0.000004 0.000003 -0.000001 -0.000000 -0.000001 -2.248346 12.848356 12.353128 -38.156278 -4.801556 41.733234 148.594249 105.662637 -149.509453 -15.782212 4.369591 3.355027 1.092527 1.427157 -13.981075 4.180281 -25.639285 -0.137695 0.000001 0.000002 0.000002 19.497113 11.206773 -3.763926 -0.109346 -0.329834 27.621574 0.000002 0.000001 0.000005 4.225232 2.321632 4.775588 0.381449 -0.492055 36.476140 -0.000001 -0.000000 0.000000 -7.049320 -10.793719 15.300484 0.116330 -0.156699 35.741523 -0.000000 -0.000004 -0.000001 -19.484424 -20.310035 15.564189 0.272096 -0.118401 46.430291 0.000001 0.000001 0.000001 -0.000003 0.000001 0.000001 -0.000000 -0.000001 -0.000001 -0.000000 -0.000001 -0.000001 -0.000000 -0.000001 -0.000001 -0.000000 -0.000001 -0.000001 -0.000000 -0.000001 -0.000001 -0.000000 -0.000001 0.000002 0.000001 0.000001 0.000001 0.000001 0.000001 0.000001 0.000001 -0.000001 0.000001 -0.000000 0.000001 -0.000000 
